<?xml version="1.0" encoding="UTF-8"?>
<svg id="Layer_2" data-name="Layer 2" xmlns="http://www.w3.org/2000/svg" viewBox="0 0 470.97 442.32">
  <defs>
    <style>
      .cls-1, .cls-2, .cls-3, .cls-4 {
        fill: #fff;
      }

      .cls-5, .cls-6, .cls-7, .cls-8 {
        fill: none;
      }

      .cls-5, .cls-7 {
        stroke: #000;
        stroke-miterlimit: 10;
      }

      .cls-2, .cls-7, .cls-9 {
        opacity: .3;
      }

      .cls-6 {
        stroke: #fff;
      }

      .cls-6, .cls-10, .cls-4, .cls-8, .cls-11 {
        stroke-linecap: round;
        stroke-linejoin: round;
      }

      .cls-3 {
        opacity: .7;
      }

      .cls-10, .cls-4, .cls-8, .cls-11 {
        stroke: #263238;
      }

      .cls-10, .cls-12 {
        fill: #92e3a9;
      }

      .cls-11, .cls-13 {
        fill: #263238;
      }
    </style>
  </defs>
  <g id="Background_Simple" data-name="Background Simple">
    <g>
      <path class="cls-12" d="m452.22,301.76c-9.25,40.48-22.23,79.93-39.54,105.18-9.88,14.44-21.19,24.23-34.02,26.92-67.78,14.2-261.42,9.03-294.34-4.52-6.13-2.52-14.05-11.41-22.58-24.83-14.99-23.59-31.85-61.2-44.16-102.97C-.72,239.46-8.96,168.19,13.96,120.15,37.6,70.62,84.29,39.43,124.97,20.65,170.36-.3,221.5-5.43,270.22,5.81c7.95,1.84,16.56,4,25.82,6.55,63.25,17.43,174.27,99.4,174.92,147.17.31,22.9-5.32,83.64-18.74,142.23Z"/>
      <path class="cls-3" d="m452.22,301.76c-9.25,40.48-22.23,79.93-39.54,105.18-9.88,14.44-21.19,24.23-34.02,26.92-67.78,14.2-261.42,9.03-294.34-4.52-6.13-2.52-14.05-11.41-22.58-24.83-14.99-23.59-31.85-61.2-44.16-102.97C-.72,239.46-8.96,168.19,13.96,120.15,37.6,70.62,84.29,39.43,124.97,20.65,170.36-.3,221.5-5.43,270.22,5.81c7.95,1.84,16.56,4,25.82,6.55,63.25,17.43,174.27,99.4,174.92,147.17.31,22.9-5.32,83.64-18.74,142.23Z"/>
    </g>
  </g>
  <g id="Mountains">
    <g>
      <path class="cls-13" d="m461.15,256.22c-2.47,14.86-5.43,30.27-8.93,45.54-9.25,40.48-22.23,79.93-39.54,105.18-9.88,14.44-21.19,24.23-34.02,26.92-67.78,14.2-261.42,9.03-294.34-4.52-6.13-2.52-14.05-11.41-22.58-24.83-14.99-23.59-31.85-61.2-44.16-102.97-4.32-14.65-8.08-29.82-10.99-45.07l76.07-31.9,26.06,1.45,5.07,1.45,14.48-23.17,40.53-29.68,17.38,5.79,45.6,102.8,24.62-8.69,14.47-28.23,10.86-2.9,39.09-41.26,34.75,7.24,3.62,10.86,15.93,17.37,49.95,22.44,12.3-18.82,14.48,1.45,9.3,13.55Z"/>
      <path class="cls-3" d="m461.15,256.22c-.65,3.92-1.34,7.88-2.07,11.87-2,11.11-4.28,22.43-6.86,33.67-9.25,40.48-22.23,79.93-39.54,105.18-9.88,14.44-21.19,24.23-34.02,26.92-67.78,14.2-261.42,9.03-294.34-4.52-6.13-2.52-14.05-11.41-22.58-24.83-14.99-23.59-31.85-61.2-44.16-102.97-4.32-14.65-8.08-29.82-10.99-45.07l76.07-31.9,26.06,1.45,5.07,1.45,14.48-23.17,35.77-26.19,4.76-3.49,17.38,5.79,45.6,102.8,24.62-8.69,14.47-28.23,10.86-2.9,39.09-41.26,34.75,7.24,3.62,10.86,15.93,17.37,49.95,22.44,9.34-14.29,2.96-4.53,14.48,1.45,9.3,13.55Z"/>
      <polygon class="cls-1" points="186.18 180.41 231.78 283.21 220.93 286.1 177.49 268.01 189.07 254.97 209.34 265.83 179.66 210.09 182.56 197.79 164.46 178.97 164.04 178.11 168.8 174.62 186.18 180.41"/>
      <polygon class="cls-1" points="375.12 237.6 425.07 260.04 414.21 268.73 353.4 265.11 350.5 254.97 367.15 244.12 348.33 233.26 345.44 224.57 331.68 218.78 320.82 202.13 355.57 209.37 359.19 220.23 375.12 237.6"/>
      <path class="cls-1" d="m461.15,256.22c-.65,3.92-1.34,7.88-2.07,11.87l-15.19-19.63-9.48-2.71,2.96-4.53,14.48,1.45,9.3,13.55Z"/>
    </g>
  </g>
  <g id="Rocks_2" data-name="Rocks 2">
    <g>
      <polygon class="cls-13" points="151.7 306.65 145.59 310.72 150.17 319.39 156.29 317.35 159.35 312.25 151.7 306.65"/>
      <polygon class="cls-13" points="148.14 336.2 146.1 342.82 150.68 344.86 152.21 339.26 148.14 336.2"/>
      <polygon class="cls-13" points="168.79 330.11 164.45 329.01 163.28 332.04 166.96 332.84 168.79 330.11"/>
    </g>
  </g>
  <g id="Rocks_1" data-name="Rocks 1">
    <g>
      <g>
        <path class="cls-13" d="m452.22,298.54v3.22c-.16.69-.32,1.39-.48,2.08-2.46,10.63-5.19,21.16-8.18,31.37-2.37,8.12-4.92,16.03-7.65,23.62-6.66,18.58-14.38,35.2-23.23,48.11l-24.03-20.4-20.18-12.14-7.28-20.03-24.89-21.85s-5.46-15.78-3.03-20.63c.7-1.39,2.87-4.01,5.7-7.08,7.08-7.68,18.23-18.15,20.4-19.02,3.03-1.21,92.85,12.75,92.85,12.75Z"/>
        <path class="cls-2" d="m452.22,298.54v3.22c-.16.69-.32,1.39-.48,2.08l-42.22-4.84,4.59,4.08-17.83,6.12-35.67-18.35-21.64,13.96c7.08-7.68,18.23-18.15,20.4-19.02,3.03-1.21,92.85,12.75,92.85,12.75Z"/>
        <path class="cls-2" d="m443.56,335.21c-2.37,8.12-4.92,16.03-7.65,23.62-.94-.48-1.92-1.06-2.95-1.74-19.36-12.74-27-12.74-27-12.74l-2.55-9.68,38.72,1.02,1.43-.48Z"/>
      </g>
      <g>
        <path class="cls-13" d="m137.92,327.64c-2.13,4.7-9.05,11.81-10.99,12.77-2.43,1.22-13.96,15.17-13.96,15.17l-4.85,13.96-7.28,13.35-14.9,6.68-20.3,9.1-3.9,5.84c-13.63-21.45-28.81-54.49-40.7-91.71-1.19-3.71-2.34-7.47-3.46-11.26l4.98-1.13,64.32-14.62s36.41,6.07,39.44,7.89c3.04,1.82,10.93,27.31,12.14,30.95.25.75.02,1.8-.54,3.01Z"/>
        <path class="cls-2" d="m137.92,327.64l-24.43,2.45,6.11-24.46-28.53-9.17-68.51,3.95,64.32-14.62s36.41,6.07,39.44,7.89c3.04,1.82,10.93,27.31,12.14,30.95.25.75.02,1.8-.54,3.01Z"/>
      </g>
    </g>
  </g>
  <g id="Clouds">
    <g class="cls-9">
      <path class="cls-5" d="m413.5,147.74s-6.62-16.58-20.33-18.54c-13.72-1.96-18.21,15.93-28.66,17.24-10.45,1.31-13.72-11.11-21.56-7.19-7.84,3.92-7.19,13.72-11.76,15.02-4.57,1.31-12.41-3.92-15.02,1.31-2.61,5.23-5.23,11.11-5.23,11.11,0,0-3.92,2.61-9.8,3.92-5.88,1.31-12.41,0-13.72,2.61h164.62s.65-15.02-9.15-18.94c-9.8-3.92-20.71,8.78-29.4-6.53Z"/>
      <path class="cls-5" d="m86.3,153.45s-3.05-7.63-9.36-8.54-8.38,7.33-13.19,7.93-6.32-5.11-9.92-3.31c-3.61,1.8-3.31,6.32-5.41,6.92-2.1.6-5.71-1.8-6.92.6s-2.41,5.11-2.41,5.11c0,0-1.8,1.2-4.51,1.8-2.71.6-5.71,0-6.31,1.2h75.78s.3-6.92-4.21-8.72-9.53,4.04-13.53-3.01Z"/>
      <g>
        <path class="cls-5" d="m237.13,11.51s-2.84-7.11-8.72-7.95c-5.88-.84-7.81,6.83-12.29,7.39s-5.88-4.76-9.24-3.08c-3.36,1.68-3.08,5.88-5.04,6.44-1.96.56-5.32-1.68-6.44.56-1.12,2.24-2.24,4.76-2.24,4.76,0,0-1.68,1.12-4.2,1.68s-5.32,0-5.88,1.12h70.57s.28-6.44-3.92-8.12c-4.2-1.68-8.88,3.77-12.6-2.8Z"/>
        <path class="cls-5" d="m169.57,16.13s-1.64-4.1-5.03-4.59c-3.39-.48-4.5,3.94-7.09,4.26-2.58.32-3.39-2.75-5.33-1.78s-1.78,3.39-2.91,3.72c-1.13.32-3.07-.97-3.72.32-.65,1.29-1.29,2.75-1.29,2.75,0,0-.97.65-2.42.97-1.45.32-3.07,0-3.39.65h40.71s.16-3.72-2.26-4.68c-2.42-.97-5.12,2.17-7.27-1.62Z"/>
      </g>
    </g>
  </g>
  <g id="Sun">
    <circle class="cls-7" cx="389.59" cy="47.22" r="34.75"/>
  </g>
  <g id="Character">
    <g>
      <g>
        <path class="cls-4" d="m154.59,237.56l-9.71.92s-7.17-1.85-7.86-.23c-.69,1.62-.46,7.86.46,10.64.92,2.77.23,7.17.69,9.71s5.55,10.64,6.47,10.87c.92.23,2.54-1.85,2.54-2.77s.23-10.87.46-12.02c.23-1.16,3.24-8.79,3.24-8.79l4.39-.69-.69-7.63Z"/>
        <path class="cls-11" d="m150.06,248l-4.03-2.12-.15-7.49-1.01.1s-7.17-1.85-7.86-.23c-.69,1.62-.46,7.86.46,10.64.92,2.77.23,7.17.69,9.71.46,2.54,5.55,10.64,6.47,10.87.92.23,2.54-1.85,2.54-2.77s.23-10.87.46-12.02c.15-.76,1.5-4.32,2.41-6.67Z"/>
      </g>
      <path class="cls-11" d="m213.78,183.22l-9.94,37.22s-28.21,6.47-30.52,7.63c-2.31,1.16-21.5,8.55-21.5,8.55l3.47,12.25s55.03-13.41,56.88-13.87c1.85-.46,3.93-.69,4.86-2.08.92-1.39,19.88-32.37,22.89-36.99,3.01-4.62-23.35-7.63-26.13-12.72Z"/>
      <g>
        <path class="cls-4" d="m247.24,99.25s-22.65-8.94-25.12-8.63-27.74,3.7-28.82,4.16c-1.08.46-34.16,28.02-35.52,29.38s-1.48,2.1-2.22,3.58c-.74,1.48-2.34,4.93-2.59,5.55s-2.34,5.42-1.73,5.55c.62.12,3.7-2.96,3.7-2.96,0,0-1.6,3.82-.25,3.21s3.94-4.68,4.31-5.05c.37-.37,6.41-3.82,6.41-3.82,0,0-1.85,4.31-1.36,5.55.49,1.23,1.73.86,1.85,0,.12-.86-.12-.99.99-2.59,1.11-1.6,1.85-3.7,1.85-4.93s-.12-5.92-.12-5.92l28.99-14.28,20.96.62,7.09,7.55s-4.31,36.68-4.47,37.45c-.15.77-1.7,2-2.16,3.7s.31,2.47,1.39,2.77,19.26,7.09,23.58,9.09c4.31,2,6.78,3.39,7.86,2.62,1.08-.77,3.39-5.24,3.39-5.24l12.17-23.42,5.55-8.01s16.03,2,23.73,1.85c7.71-.15,9.86-3.24,10.32-4.78,0,0-3.85.62-7.09-2.31-3.24-2.93-6.32-8.01-6.32-8.01,0,0-10.94-2.77-12.33-3.7-1.39-.92-3.54-2.31-10.94-7.09-7.4-4.78-9.55-5.55-9.55-5.55l-13.56-6.32Z"/>
        <path class="cls-10" d="m225.66,116.2s-4.31,36.68-4.47,37.45-1.7,2-2.16,3.7c-.46,1.7.31,2.47,1.39,2.77s19.26,7.09,23.58,9.09c4.31,2,6.78,3.39,7.86,2.62,1.08-.77,3.39-5.24,3.39-5.24l12.17-23.42,5.55-8.01s16.03,2,23.73,1.85c7.71-.15,9.86-3.24,10.32-4.78,0,0-3.85.62-7.09-2.31-3.24-2.93-6.32-8.01-6.32-8.01,0,0-10.94-2.77-12.33-3.7-1.39-.92-3.54-2.31-10.94-7.09-7.4-4.78-9.55-5.55-9.55-5.55l-13.56-6.32s-22.65-8.94-25.12-8.63-27.74,3.7-28.82,4.16c-.07.03-.28.18-.61.43,1.36,2.47,4.12,7.9,4.92,12.82l20.96.62,7.09,7.55Z"/>
        <line class="cls-8" x1="218.57" y1="108.65" x2="214.41" y2="103.56"/>
        <polyline class="cls-8" points="280.98 126.37 272.97 135.15 289.77 126.52"/>
        <path class="cls-8" d="m154.95,135.87s3.84-6.26,5.38-7.65"/>
        <line class="cls-8" x1="153.7" y1="131.91" x2="158.78" y2="125.9"/>
      </g>
      <path class="cls-11" d="m248.51,114.95l.8,7.71s-9.84,5.85-12.36,4.65c-2.53-1.2-18.61-11.96-19.67-11.56-1.06.4-21.27,6.91-24.06,7.44-2.79.53-5.58.93-5.58.93l-6.78,7.84,14.75,5.18s10.77-6.78,14.89-9.3c4.12-2.53,8.24-5.05,8.24-5.05,0,0,16.35,9.84,16.88,9.7.53-.13,15.29-8.77,15.29-8.77,0,0,3.59-1.2,5.32-2.53s3.97-6.66,4.58-6.85c.61-.19,1.14-1.39,1.14-1.39l-2.13-.13-5.18,5.85-3.32-1.06-.66-5.85-2.13,3.19Z"/>
      <polygon class="cls-10" points="253.71 119.12 260.8 114.35 266.34 122.36 262.95 106.33 256.48 114.81 253.71 119.12"/>
      <g>
        <path class="cls-4" d="m275.74,85.07s1.23,3.08.31,4.31l-1.39,1.85s4.01,4.47,3.08,5.55-2.47,1.7-2.47,1.7c0,0-3.08,6.93-3.85,7.71-.77.77-4.47-.46-4.47-.46l-13.25,13.41-.46-7.24-3.39-14.18.77-1.54s.77-11.87,5.24-15.87c4.47-4.01,12.48-3.85,16.49-1.85,4.01,2,3.39,6.63,3.39,6.63Z"/>
        <polygon class="cls-11" points="266.96 105.72 263.58 103.32 263.07 109.24 266.96 105.72"/>
        <path class="cls-11" d="m260.64,87.84l2-.15s.31-2.31,1.08-2.62,1.54.62,2.93-.62c1.39-1.23,1.85-4.47,4.62-4.31s4.16,2.62,4.47,4.93c.31,2.31,5.09-.46,5.7-2.16s1.7-5.86.15-6.32-4.01,2.31-4.16,1.85c-.15-.46.46-7.09-2-6.47-2.47.62-3.39,1.7-3.39,1.7,0,0-8.78-4.78-12.94-3.54-4.16,1.23-9.55,5.24-10.02,8.17-.46,2.93.15,18.95,1.54,17.88,1.39-1.08,7.86-6.93,7.86-6.93l2.16-1.39Z"/>
        <path class="cls-4" d="m261.26,89.23s-.62-6.63-3.85-4.62c-3.24,2-2,6.47-1.23,7.55s3.08.31,3.08.31"/>
        <path class="cls-8" d="m257.71,92.77s-.15,5.7.77,6.63,3.7,2.77,3.7,2.77"/>
        <path class="cls-8" d="m275.13,88.15s-.92-2-2.93-1.54"/>
        <path class="cls-8" d="m270.5,98.17s2.31.31,2.62,1.7"/>
        <path class="cls-13" d="m273.59,90.38c0,.64-.28,1.16-.62,1.16s-.62-.52-.62-1.16.28-1.16.62-1.16.62.52.62,1.16Z"/>
      </g>
      <polygon class="cls-10" points="249.86 97.7 253.25 111.88 245.54 120.67 245.69 98.78 249.86 97.7"/>
      <path class="cls-10" d="m191.6,95.85s2.16,3.08,2.93,5.86c.77,2.77,1.54,7.86,1.54,7.86,0,0,0,.62,2.62,0,2.62-.62,3.39,1.08,3.7-2.16s-.77-8.94-2-11.71c-1.23-2.77,0-2.77-1.85-2.77s-6.63.92-6.93,2.93Z"/>
      <path class="cls-10" d="m295.01,117.27s-5.39,5.55-4.78,6.47,9.4,9.86,11.4,10.48c2,.62,4.16.62,6.63-2,2.47-2.62.46-6.78-.62-8.78s-11.25-6.78-12.64-6.16Z"/>
      <g>
        <path class="cls-4" d="m302.56,85.07s-8.01,34.06-8.48,35.44c-.46,1.39,5.39,7.7,7.55,8.17,2.16.46,5.09-.62,5.55-2.93s.92-6.32.92-6.32l.15-38.68s-5.7-9.4-6.93-9.4-6.78,5.09-6.32,6.16c.46,1.08,1.54,3.7,2.62,4.16s1.39.77,2,.92,2.93,2.47,2.93,2.47Z"/>
        <path class="cls-4" d="m307.77,80.03s-4.44-11.14-5.52-10.83c-1.08.31-6.63,2.62-6.63,3.24s-.15,3.08.15,3.7,5.86,5.7,6.32,6.01.31.62,1.7,0c1.39-.62,2.47-2,1.54-2.31"/>
        <path class="cls-4" d="m295.19,73.74s-2.46.76-2.38,1.78c.08,1.02,2.12,3.23,2.63,3.31.51.09,1.53-.25,1.53-.85s-1.78-4.25-1.78-4.25Z"/>
        <path class="cls-4" d="m305.64,76.89s-3.99,1.44-3.99,2.04.45,3.22.45,3.22"/>
        <path class="cls-8" d="m304.62,74.51s-4.93,1.61-4.93,2.38.25,3.31.25,3.31"/>
        <path class="cls-8" d="m303.52,71.53s-6.2,2.12-6.2,3.14.51,3.4.51,3.4"/>
        <path class="cls-8" d="m302.56,85.07s1.13,1,2.15,1.08"/>
      </g>
      <g>
        <path class="cls-4" d="m311.06,247.34l3.81,1.78s8.06-4.97,11.22-6.37c3.15-1.4,4.73-3.92,5.67-3.46.94.46-1.7,7.94-2.87,9.76-1.17,1.83-5.53,7.64-7.03,8.61-1.51.98-8.25,7.44-10.54,7.94-2.28.51-5.07-7.1-5.58-8.12s-2.79-4.82-2.79-4.82l8.12-5.33Z"/>
        <path class="cls-11" d="m305.73,257.49c.51,1.01,3.3,8.63,5.58,8.12,2.28-.51,9.03-6.97,10.54-7.94,1.51-.97,5.86-6.79,7.03-8.61,1.17-1.83,3.81-9.3,2.87-9.76-.94-.46-2.52,2.06-5.67,3.46s-11.22,6.37-11.22,6.37l.15,3.54-9.29,4.83Z"/>
      </g>
      <g>
        <path class="cls-11" d="m220.42,160.12s-6.41,9.7-8.49,16.63c-2.08,6.94,2.08,13.18,6.24,15.49s16.18,4.86,20.81,5.55c4.62.69,30.75,1.39,30.75,1.39,0,0,9.06,23.47,12.29,28.56,3.24,5.09,13.64,20.12,13.64,20.12l4.16,8.55,14.33-9.94s-9.71-16.18-10.17-17.8c-.46-1.62-19.23-43.59-20.39-44.98-1.16-1.39-31.68-10.4-31.68-10.4,0,0-27.18-13.61-31.51-13.16Z"/>
        <path class="cls-6" d="m217.94,172.59s7.4-3.47,10.4-4.16,23.51,3.4,23.51,3.4"/>
        <path class="cls-6" d="m219.1,167.96s4.16-1.85,8.09-1.62"/>
      </g>
    </g>
  </g>
</svg>